<?xml version="1.0" encoding="UTF-8" standalone="no"?>
<svg
   xmlns:dc="http://purl.org/dc/elements/1.1/"
   xmlns:cc="http://creativecommons.org/ns#"
   xmlns:rdf="http://www.w3.org/1999/02/22-rdf-syntax-ns#"
   xmlns:svg="http://www.w3.org/2000/svg"
   xmlns="http://www.w3.org/2000/svg"
   xmlns:sodipodi="http://sodipodi.sourceforge.net/DTD/sodipodi-0.dtd"
   xmlns:inkscape="http://www.inkscape.org/namespaces/inkscape"
   width="40"
   height="19"
   viewBox="0 0 40.000002 19"
   id="svg2"
   version="1.1"
   inkscape:version="1.0.1 (3bc2e813f5, 2020-09-07)"
   sodipodi:docname="iconEncrBG.svg">
  <defs
     id="defs4" />
  <sodipodi:namedview
     id="base"
     pagecolor="#ffffff"
     bordercolor="#666666"
     borderopacity="1.0"
     inkscape:pageopacity="0.0"
     inkscape:pageshadow="2"
     inkscape:zoom="3.2796268"
     inkscape:cx="85.408134"
     inkscape:cy="119.91566"
     inkscape:document-units="px"
     inkscape:current-layer="layer1"
     showgrid="false"
     inkscape:window-width="1920"
     inkscape:window-height="1108"
     inkscape:window-x="1920"
     inkscape:window-y="34"
     inkscape:window-maximized="1"
     fit-margin-top="0"
     fit-margin-left="0"
     fit-margin-right="0"
     fit-margin-bottom="0"
     units="px"
     inkscape:document-rotation="0" />
  <metadata
     id="metadata7">
    <rdf:RDF>
      <cc:Work
         rdf:about="">
        <dc:format>image/svg+xml</dc:format>
        <dc:type
           rdf:resource="http://purl.org/dc/dcmitype/StillImage" />
        <dc:title></dc:title>
      </cc:Work>
    </rdf:RDF>
  </metadata>
  <g
     inkscape:label="Ebene 1"
     inkscape:groupmode="layer"
     id="layer1"
     transform="translate(-525.07367,-500.45723)">
    <rect
       style="opacity:1;fill:#000000;fill-opacity:1;stroke:none;stroke-width:0.336;stroke-linecap:square;stroke-linejoin:round;stroke-miterlimit:4;stroke-dasharray:none;stroke-opacity:1"
       id="rect3419"
       width="22.857143"
       height="5.7142859"
       x="471.42856"
       y="898.07648"
       ry="0.262968" />
    <rect
       ry="0.262968"
       y="898.07648"
       x="471.42856"
       height="5.7142859"
       width="22.857143"
       id="rect3421"
       style="opacity:1;fill:#000000;fill-opacity:1;stroke:none;stroke-width:0.336;stroke-linecap:square;stroke-linejoin:round;stroke-miterlimit:4;stroke-dasharray:none;stroke-opacity:1" />
    <path
       style="opacity:1;fill:#000000;fill-opacity:1;stroke:none;stroke-width:0.336;stroke-linecap:square;stroke-linejoin:round;stroke-miterlimit:4;stroke-dasharray:none;stroke-opacity:1"
       d="m 558.92511,501.82522 c -2.94575,0 -5.31721,2.37308 -5.31721,5.32082 v 1.25442 h -25.64832 c -0.93402,0 -1.68599,0.75249 -1.68599,1.68715 0,0.93464 0.75197,1.68713 1.68599,1.68713 h 25.64832 v 1.25442 c 0,2.94774 2.37146,5.32083 5.31721,5.32083 2.94575,0 5.31721,-2.37309 5.31721,-5.32083 v -5.88312 c 0,-2.94774 -2.37146,-5.32082 -5.31721,-5.32082 z m 0,3.11458 c 1.71692,0 3.09907,1.47844 3.09907,3.315 v 3.66534 c 0,1.83656 -1.38215,3.31525 -3.09907,3.31525 -1.71692,0 -3.09907,-1.47869 -3.09907,-3.31525 v -3.66534 c 0,-1.83656 1.38215,-3.315 3.09907,-3.315 z m -29.23638,7.94691 c -0.93401,0 -1.68572,0.75222 -1.68572,1.68687 v 2.16304 c 0,0.93465 0.75171,1.68714 1.68572,1.68714 h 4.32316 c 0.93402,0 1.68573,-0.75249 1.68573,-1.68714 v -2.16304 c 0,-0.93465 -0.75171,-1.68687 -1.68573,-1.68687 z"
       id="rect3568"
       inkscape:connector-curvature="0" />
  </g>
</svg>
