<?xml version="1.0" encoding="UTF-8" standalone="no"?>
<!-- Created with Inkscape (http://www.inkscape.org/) -->

<svg
   xmlns:dc="http://purl.org/dc/elements/1.1/"
   xmlns:cc="http://creativecommons.org/ns#"
   xmlns:rdf="http://www.w3.org/1999/02/22-rdf-syntax-ns#"
   xmlns:svg="http://www.w3.org/2000/svg"
   xmlns="http://www.w3.org/2000/svg"
   xmlns:sodipodi="http://sodipodi.sourceforge.net/DTD/sodipodi-0.dtd"
   xmlns:inkscape="http://www.inkscape.org/namespaces/inkscape"
   width="192"
   height="227"
   viewBox="0 0 192 227"
   id="svg2"
   version="1.1"
   inkscape:version="0.91+devel r13930"
   sodipodi:docname="radioBG.svg">
  <defs
     id="defs4" />
  <sodipodi:namedview
     id="base"
     pagecolor="#ffffff"
     bordercolor="#666666"
     borderopacity="1.0"
     inkscape:pageopacity="0.0"
     inkscape:pageshadow="2"
     inkscape:zoom="4.9500232"
     inkscape:cx="61.111791"
     inkscape:cy="94.715392"
     inkscape:document-units="px"
     inkscape:current-layer="layer1"
     showgrid="true"
     inkscape:window-width="1680"
     inkscape:window-height="966"
     inkscape:window-x="-4"
     inkscape:window-y="32"
     inkscape:window-maximized="1"
     units="px"
     fit-margin-top="0"
     fit-margin-left="0"
     fit-margin-right="0"
     fit-margin-bottom="0"
     showguides="true"
     inkscape:guide-bbox="true">
    <inkscape:grid
       type="xygrid"
       id="grid4187" />
  </sodipodi:namedview>
  <metadata
     id="metadata7">
    <rdf:RDF>
      <cc:Work
         rdf:about="">
        <dc:format>image/svg+xml</dc:format>
        <dc:type
           rdf:resource="http://purl.org/dc/dcmitype/StillImage" />
        <dc:title></dc:title>
      </cc:Work>
    </rdf:RDF>
  </metadata>
  <g
     inkscape:label="Ebene 1"
     inkscape:groupmode="layer"
     id="layer1"
     transform="translate(-312.80002,-451.95557)">
    <path
       style="opacity:1;fill:#000000;fill-opacity:1;stroke:none;stroke-width:0.336;stroke-linecap:square;stroke-linejoin:round;stroke-miterlimit:4;stroke-dasharray:none;stroke-opacity:1"
       d="m 364.69721,584.42626 c -0.0124,0 -0.0224,0.0102 -0.0224,0.0228 l 0,28.29964 c 0,0.0126 0.01,0.0228 0.0224,0.0228 l 37.00996,0 c 0.0124,0 0.0224,-0.0102 0.0224,-0.0228 l 0,-28.29964 c 0,-0.0126 -0.01,-0.0228 -0.0224,-0.0228 l -37.00996,0 z m 1.68568,1.72745 33.6386,0 0,24.89029 -33.6386,0 0,-24.89029 z m 27.66732,2.35922 a 2.9523195,2.9858797 0 0 0 -2.95237,2.98592 2.9523195,2.9858797 0 0 0 2.95237,2.98593 2.9523195,2.9858797 0 0 0 2.95236,-2.98593 2.9523195,2.9858797 0 0 0 -2.95236,-2.98592 z m -15.85453,0.33452 a 9.9197937,10.032556 0 0 0 -9.91977,10.03254 9.9197937,10.032556 0 0 0 9.91977,10.03254 9.9197937,10.032556 0 0 0 9.91977,-10.03254 9.9197937,10.032556 0 0 0 -9.91977,-10.03254 z m 15.85453,7.11831 a 2.9523195,2.9858797 0 0 0 -2.95237,2.98592 2.9523195,2.9858797 0 0 0 2.95237,2.98576 2.9523195,2.9858797 0 0 0 2.95236,-2.98576 2.9523195,2.9858797 0 0 0 -2.95236,-2.98592 z"
       id="rect3417"
       inkscape:connector-curvature="0" />
  </g>
</svg>
