<?xml version="1.0" encoding="UTF-8" standalone="no"?>
<svg
   xmlns:dc="http://purl.org/dc/elements/1.1/"
   xmlns:cc="http://creativecommons.org/ns#"
   xmlns:rdf="http://www.w3.org/1999/02/22-rdf-syntax-ns#"
   xmlns:svg="http://www.w3.org/2000/svg"
   xmlns="http://www.w3.org/2000/svg"
   xmlns:sodipodi="http://sodipodi.sourceforge.net/DTD/sodipodi-0.dtd"
   xmlns:inkscape="http://www.inkscape.org/namespaces/inkscape"
   enable-background="new 0 0 32 32"
   height="32px"
   id="Layer_1"
   version="1.1"
   viewBox="0 0 32 32"
   width="32px"
   xml:space="preserve"
   inkscape:version="0.91+devel r13930"
   sodipodi:docname="seenActive.svg"><metadata
     id="metadata4344"><rdf:RDF><cc:Work
         rdf:about=""><dc:format>image/svg+xml</dc:format><dc:type
           rdf:resource="http://purl.org/dc/dcmitype/StillImage" /><dc:title></dc:title></cc:Work></rdf:RDF></metadata><defs
     id="defs4342" /><sodipodi:namedview
     pagecolor="#ffffff"
     bordercolor="#666666"
     borderopacity="1"
     objecttolerance="10"
     gridtolerance="10"
     guidetolerance="10"
     inkscape:pageopacity="0"
     inkscape:pageshadow="2"
     inkscape:window-width="1680"
     inkscape:window-height="964"
     id="namedview4340"
     showgrid="false"
     inkscape:zoom="7.375"
     inkscape:cx="16"
     inkscape:cy="16"
     inkscape:window-x="-6"
     inkscape:window-y="26"
     inkscape:window-maximized="1"
     inkscape:current-layer="Layer_1" /><g
     id="g4322"
     style="fill:#cccccc;fill-opacity:1"><polyline
       fill="none"
       points="   649,137.999 675,137.999 675,155.999 661,155.999  "
       stroke="#FFFFFF"
       stroke-linecap="round"
       stroke-linejoin="round"
       stroke-miterlimit="10"
       stroke-width="2"
       id="polyline4324"
       style="fill:#cccccc;fill-opacity:1" /><polyline
       fill="none"
       points="   653,155.999 649,155.999 649,141.999  "
       stroke="#FFFFFF"
       stroke-linecap="round"
       stroke-linejoin="round"
       stroke-miterlimit="10"
       stroke-width="2"
       id="polyline4326"
       style="fill:#cccccc;fill-opacity:1" /><polyline
       fill="none"
       points="   661,156 653,162 653,156  "
       stroke="#FFFFFF"
       stroke-linecap="round"
       stroke-linejoin="round"
       stroke-miterlimit="10"
       stroke-width="2"
       id="polyline4328"
       style="fill:#cccccc;fill-opacity:1" /></g><g
     id="g4330"
     style="fill:#cccccc;fill-opacity:1;stroke:none"><g
       id="g4332"
       style="fill:#cccccc;fill-opacity:1;stroke:none"><path
         d="M16,25c-4.265,0-8.301-1.807-11.367-5.088c-0.377-0.403-0.355-1.036,0.048-1.413c0.404-0.377,1.036-0.355,1.414,0.048    C8.778,21.419,12.295,23,16,23c4.763,0,9.149-2.605,11.84-7c-2.69-4.395-7.077-7-11.84-7c-4.938,0-9.472,2.801-12.13,7.493    c-0.272,0.481-0.884,0.651-1.363,0.377c-0.481-0.272-0.649-0.882-0.377-1.363C5.147,10.18,10.333,7,16,7    c5.668,0,10.853,3.18,13.87,8.507c0.173,0.306,0.173,0.68,0,0.985C26.853,21.819,21.668,25,16,25z"
         id="path4334"
         style="fill:#cccccc;fill-opacity:1;stroke:none" /></g><g
       id="g4336"
       style="fill:#cccccc;fill-opacity:1;stroke:none"><path
         d="M16,21c-2.757,0-5-2.243-5-5s2.243-5,5-5s5,2.243,5,5S18.757,21,16,21z M16,13c-1.654,0-3,1.346-3,3s1.346,3,3,3    s3-1.346,3-3S17.654,13,16,13z"
         id="path4338"
         style="fill:#cccccc;fill-opacity:1;stroke:none" /></g></g><g
     id="g4889"
     transform="matrix(-1,0,0,1,31.999615,0)"
     style="fill:#cccccc;fill-opacity:1;stroke:none"><g
       id="g4891"
       style="fill:#cccccc;fill-opacity:1;stroke:none" /><g
       id="g4895"
       style="fill:#cccccc;fill-opacity:1;stroke:none"><path
         id="path4897"
         d="m 16,21 c -2.757,0 -5,-2.243 -5,-5 0,-2.757 2.243,-5 5,-5 2.757,0 5,2.243 5,5 0,2.757 -2.243,5 -5,5 z m 0,-8 c -1.654,0 -3,1.346 -3,3 0,1.654 1.346,3 3,3 1.654,0 3,-1.346 3,-3 0,-1.654 -1.346,-3 -3,-3 z"
         inkscape:connector-curvature="0"
         style="fill:#cccccc;fill-opacity:1;stroke:none" /></g></g><g
     id="g4902"
     style="fill:#cccccc;fill-opacity:1"><path
       style="fill:#cccccc;fill-opacity:1;stroke:none"
       inkscape:connector-curvature="0"
       d="M 16,25 C 11.735,25 7.699,23.193 4.633,19.912 4.256,19.509 4.278,18.876 4.681,18.499 5.085,18.122 5.717,18.144 6.095,18.547 8.778,21.419 12.295,23 16,23 20.763,23 25.149,20.395 27.84,16 25.15,11.605 20.763,9 16,9 11.062,9 6.528,11.801 3.87,16.493 3.598,16.974 2.986,17.144 2.507,16.87 2.026,16.598 1.858,15.988 2.13,15.507 5.147,10.18 10.333,7 16,7 c 5.668,0 10.853,3.18 13.87,8.507 0.173,0.306 0.173,0.68 0,0.985 C 26.853,21.819 21.668,25 16,25 Z"
       id="path4893"
       transform="matrix(-1,0,0,1,31.999615,0)" /><circle
       r="3.6610169"
       cy="15.864407"
       cx="16.40678"
       id="path4899"
       style="opacity:1;fill:#cccccc;fill-opacity:1;fill-rule:nonzero;stroke:none;stroke-width:0.11338583;stroke-linecap:round;stroke-linejoin:round;stroke-miterlimit:1.89999998;stroke-dasharray:none;stroke-dashoffset:0;stroke-opacity:1" /></g></svg>